<?xml version="1.0" encoding="utf-8"?>
<svg version="1.1" id="Layer_1" x="0px" y="0px" viewBox="0 0 512 512" style="enable-background:new 0 0 512 512;" xmlns="http://www.w3.org/2000/svg">
  <path d="M285.3,394.7l-11,10.9c-9.3,9.4-24.4,9.4-33.8,0.1c0,0-0.1-0.1-0.1-0.1L107.7,272.9c-9.4-9.3-9.4-24.4-0.1-33.8 c0,0,0.1-0.1,0.1-0.1l132.7-132.6c9.3-9.4,24.4-9.4,33.8-0.1c0,0,0.1,0.1,0.1,0.1l11,10.9c9.4,9.4,9.3,24.6,0,33.9 c-0.1,0.1-0.2,0.2-0.4,0.4L209.4,224H392c13.2,0,24,10.7,24,23.9c0,0,0,0.1,0,0.1v16c0,13.2-10.7,24-23.9,24c0,0-0.1,0-0.1,0H209.4 l75.5,72.4c9.6,9.2,9.9,24.4,0.8,33.9C285.5,394.5,285.4,394.6,285.3,394.7L285.3,394.7z" style="fill: rgb(255, 255, 255);"/>
</svg>