<?xml version="1.0" encoding="utf-8"?>
<svg version="1.1" id="Layer_1" x="0px" y="0px" viewBox="0 0 512 512" style="enable-background:new 0 0 512 512;" xmlns="http://www.w3.org/2000/svg">
  <g>
    <path d="M226.7,117.2l11-10.9c9.3-9.4,24.4-9.4,33.8-0.1c0,0,0.1,0.1,0.1,0.1l132.7,132.8c9.4,9.3,9.4,24.4,0.1,33.8 c0,0-0.1,0.1-0.1,0.1L271.6,405.6c-9.3,9.4-24.4,9.4-33.8,0.1c0,0-0.1-0.1-0.1-0.1l-11-10.9c-9.4-9.4-9.3-24.6,0-33.9 c0.1-0.1,0.2-0.2,0.4-0.4l75.5-72.4H120c-13.2,0-24-10.7-24-23.9c0,0,0-0.1,0-0.1v-16c0-13.2,10.7-24,23.9-24c0,0,0.1,0,0.1,0 h182.6l-75.5-72.4c-9.6-9.3-9.9-24.5-0.6-34.1C226.5,117.4,226.6,117.3,226.7,117.2L226.7,117.2z" style="fill: rgb(255, 255, 255);"/>
  </g>
</svg>