<?xml version="1.0" encoding="UTF-8" standalone="no"?>
<!-- Created with Inkscape (http://www.inkscape.org/) -->

<svg
   version="1.1"
   id="svg2"
   xml:space="preserve"
   width="126.52081"
   height="126.52182"
   viewBox="0 0 126.52081 126.52182"
   sodipodi:docname="e6cf3444e9ed4a72e54545107a1ca7bf.ai"
   xmlns:inkscape="http://www.inkscape.org/namespaces/inkscape"
   xmlns:sodipodi="http://sodipodi.sourceforge.net/DTD/sodipodi-0.dtd"
   xmlns="http://www.w3.org/2000/svg"
   xmlns:svg="http://www.w3.org/2000/svg"><defs
     id="defs6"><clipPath
       clipPathUnits="userSpaceOnUse"
       id="clipPath16"><path
         d="M 0,126 H 126 V 0 H 0 Z"
         id="path14" /></clipPath></defs><sodipodi:namedview
     id="namedview4"
     pagecolor="#ffffff"
     bordercolor="#666666"
     borderopacity="1.0"
     inkscape:pageshadow="2"
     inkscape:pageopacity="0.0"
     inkscape:pagecheckerboard="0" /><g
     id="g8"
     inkscape:groupmode="layer"
     inkscape:label="e6cf3444e9ed4a72e54545107a1ca7bf"
     transform="matrix(1.3333333,0,0,-1.3333333,-20.739461,147.26091)"><g
       id="g10"><g
         id="g12"
         clip-path="url(#clipPath16)"><g
           id="g18"
           transform="translate(23.7969,68.1664)"><path
             d="m 0,0 c -0.295,-2.265 -2.375,-3.863 -4.641,-3.567 -2.264,0.296 -3.862,2.375 -3.566,4.639 1.32,10.088 5.849,19.835 13.592,27.579 7.743,7.743 17.491,12.273 27.579,13.593 2.264,0.296 4.344,-1.303 4.64,-3.567 0.295,-2.265 -1.302,-4.345 -3.567,-4.64 C 25.696,32.946 17.64,29.199 11.239,22.798 4.837,16.397 1.089,8.339 0,0 m 34.037,-44.369 c 2.265,-0.297 3.864,-2.376 3.567,-4.64 -0.297,-2.264 -2.376,-3.863 -4.641,-3.568 -10.088,1.32 -19.834,5.85 -27.578,13.594 -7.742,7.743 -12.274,17.489 -13.592,27.577 -0.296,2.266 1.302,4.345 3.567,4.64 2.265,0.297 4.344,-1.302 4.64,-3.566 1.091,-8.34 4.836,-16.398 11.238,-22.799 6.401,-6.401 14.46,-10.148 22.799,-11.238 m 44.368,34.037 c 0.297,2.264 2.376,3.863 4.641,3.567 2.265,-0.297 3.863,-2.375 3.567,-4.64 -1.319,-10.089 -5.851,-19.835 -13.593,-27.578 -7.744,-7.744 -17.49,-12.274 -27.578,-13.594 -2.265,-0.295 -4.343,1.303 -4.641,3.568 -0.295,2.265 1.303,4.344 3.568,4.64 8.339,1.09 16.397,4.837 22.799,11.238 6.401,6.401 10.147,14.459 11.237,22.799 M 44.369,34.037 c -2.266,0.295 -3.863,2.375 -3.567,4.639 0.296,2.265 2.375,3.864 4.641,3.568 C 55.53,40.925 65.277,36.394 73.02,28.651 80.763,20.907 85.294,11.162 86.613,1.073 86.909,-1.192 85.31,-3.271 83.046,-3.567 80.782,-3.864 78.702,-2.266 78.405,0 77.316,8.339 73.568,16.397 67.167,22.798 60.765,29.199 52.709,32.946 44.369,34.037"
             style="fill:#ffffff;fill-opacity:1;fill-rule:evenodd;stroke:none"
             id="path20" /></g><g
           id="g22"
           transform="translate(81.6715,76.1921)"><path
             d="m 0,0 c -0.35,-0.391 -0.95,-0.424 -1.341,-0.074 -0.391,0.35 -0.425,0.951 -0.075,1.342 0.871,0.972 0.871,2.462 0,3.434 -0.35,0.391 -0.316,0.992 0.075,1.342 C -0.95,6.394 -0.35,6.361 0,5.97 1.513,4.277 1.513,1.693 0,0 M 1.912,-1.709 C 1.562,-2.1 0.96,-2.134 0.569,-1.784 c -0.391,0.35 -0.424,0.952 -0.074,1.343 1.736,1.94 1.736,4.912 0,6.852 -0.35,0.391 -0.317,0.992 0.074,1.342 0.391,0.351 0.993,0.317 1.343,-0.074 2.377,-2.66 2.377,-6.728 0,-9.388 M 3.822,-3.42 C 3.472,-3.809 2.872,-3.843 2.481,-3.493 2.09,-3.143 2.058,-2.541 2.408,-2.15 5.024,0.768 5.024,5.202 2.408,8.12 2.058,8.511 2.09,9.113 2.481,9.463 2.872,9.813 3.472,9.779 3.822,9.39 7.083,5.749 7.083,0.221 3.822,-3.42"
             style="fill:#ffffff;fill-opacity:1;fill-rule:evenodd;stroke:none"
             id="path24" /></g><g
           id="g26"
           transform="translate(71.5432,68.5752)"><path
             d="m 0,0 v 20.878 h 3.415 c 1.382,0 2.521,-1.03 2.521,-2.299 V 2.296 C 5.936,1.028 4.797,0 3.415,0 Z"
             style="fill:#ffffff;fill-opacity:1;fill-rule:evenodd;stroke:none"
             id="path28" /></g><g
           id="g30"
           transform="translate(50.9711,86.4385)"><path
             d="M 0,0 19.081,3.014 V -17.863 H -0.84 c -5.448,0.304 -9.758,1.015 -10.598,5.815 v 3.196 C -10.571,-3.841 -5.773,0 0,0"
             style="fill:#ffffff;fill-opacity:1;fill-rule:evenodd;stroke:none"
             id="path32" /></g><g
           id="g34"
           transform="translate(56.8004,61.8989)"><path
             d="m 0,0 c 0,2.115 -1.621,3.833 -3.617,3.833 h -7.232 c -1.996,0 -3.616,-1.718 -3.616,-3.833 l -2.893,-21.521 c 0,-2.117 1.62,-3.833 3.615,-3.833 h 7.233 c 1.996,0 3.617,1.716 3.617,3.833 z"
             style="fill:#ffffff;fill-opacity:1;fill-rule:evenodd;stroke:none"
             id="path36" /></g></g></g></g></svg>
