<?xml version="1.0" encoding="UTF-8" standalone="no"?>
<!-- Created with Inkscape (http://www.inkscape.org/) -->

<svg
   version="1.1"
   id="svg2"
   xml:space="preserve"
   width="815.78717"
   height="126.52182"
   viewBox="0 0 815.78717 126.52182"
   sodipodi:docname="476cf607e8f47d123179c66b47422f7d.ai"
   xmlns:inkscape="http://www.inkscape.org/namespaces/inkscape"
   xmlns:sodipodi="http://sodipodi.sourceforge.net/DTD/sodipodi-0.dtd"
   xmlns="http://www.w3.org/2000/svg"
   xmlns:svg="http://www.w3.org/2000/svg"><defs
     id="defs6"><clipPath
       clipPathUnits="userSpaceOnUse"
       id="clipPath16"><path
         d="M 0,126 H 612 V 0 H 0 Z"
         id="path14" /></clipPath></defs><sodipodi:namedview
     id="namedview4"
     pagecolor="#ffffff"
     bordercolor="#666666"
     borderopacity="1.0"
     inkscape:pageshadow="2"
     inkscape:pageopacity="0.0"
     inkscape:pagecheckerboard="0" /><g
     id="g8"
     inkscape:groupmode="layer"
     inkscape:label="476cf607e8f47d123179c66b47422f7d"
     transform="matrix(1.3333333,0,0,-1.3333333,-0.21279437,147.26038)"><g
       id="g10"><g
         id="g12"
         clip-path="url(#clipPath16)"><g
           id="g18"
           transform="translate(8.4019,68.166)"><path
             d="m 0,0 c -0.295,-2.265 -2.375,-3.863 -4.641,-3.567 -2.264,0.296 -3.862,2.375 -3.566,4.639 1.32,10.088 5.849,19.835 13.592,27.579 7.743,7.743 17.491,12.273 27.579,13.593 2.264,0.296 4.344,-1.303 4.64,-3.567 0.295,-2.265 -1.302,-4.345 -3.567,-4.64 C 25.696,32.946 17.64,29.199 11.239,22.798 4.837,16.397 1.089,8.339 0,0 m 34.037,-44.369 c 2.265,-0.297 3.864,-2.376 3.567,-4.64 -0.297,-2.264 -2.376,-3.863 -4.641,-3.568 -10.088,1.32 -19.834,5.85 -27.578,13.594 -7.742,7.743 -12.274,17.489 -13.592,27.577 -0.296,2.266 1.302,4.345 3.567,4.64 2.265,0.297 4.344,-1.302 4.64,-3.566 1.091,-8.34 4.836,-16.398 11.238,-22.799 6.401,-6.401 14.46,-10.148 22.799,-11.238 m 44.368,34.037 c 0.297,2.264 2.376,3.863 4.641,3.567 2.265,-0.297 3.863,-2.375 3.567,-4.64 -1.319,-10.089 -5.851,-19.835 -13.593,-27.578 -7.744,-7.744 -17.49,-12.274 -27.578,-13.594 -2.265,-0.295 -4.343,1.303 -4.641,3.568 -0.295,2.265 1.303,4.344 3.568,4.64 8.339,1.09 16.397,4.837 22.799,11.238 6.401,6.401 10.147,14.459 11.237,22.799 M 44.369,34.037 c -2.266,0.295 -3.863,2.375 -3.567,4.639 0.296,2.265 2.375,3.864 4.641,3.568 C 55.53,40.925 65.277,36.394 73.02,28.651 80.763,20.907 85.294,11.162 86.613,1.073 86.909,-1.192 85.31,-3.271 83.046,-3.567 80.782,-3.864 78.702,-2.266 78.405,0 77.316,8.339 73.568,16.397 67.167,22.798 60.765,29.199 52.709,32.946 44.369,34.037"
             style="fill:#ffffff;fill-opacity:1;fill-rule:evenodd;stroke:none"
             id="path20" /></g><g
           id="g22"
           transform="translate(66.2765,76.1917)"><path
             d="m 0,0 c -0.35,-0.391 -0.95,-0.424 -1.341,-0.074 -0.391,0.35 -0.425,0.951 -0.075,1.342 0.871,0.972 0.871,2.462 0,3.434 -0.35,0.391 -0.316,0.992 0.075,1.342 C -0.95,6.394 -0.35,6.361 0,5.97 1.513,4.277 1.513,1.693 0,0 M 1.912,-1.709 C 1.562,-2.1 0.96,-2.134 0.569,-1.784 c -0.391,0.35 -0.424,0.952 -0.074,1.343 1.736,1.94 1.736,4.912 0,6.852 -0.35,0.391 -0.317,0.992 0.074,1.342 0.391,0.351 0.993,0.317 1.343,-0.074 2.377,-2.66 2.377,-6.728 0,-9.388 M 3.822,-3.42 C 3.472,-3.809 2.872,-3.843 2.481,-3.493 2.09,-3.143 2.058,-2.541 2.408,-2.15 5.024,0.768 5.024,5.202 2.408,8.12 2.058,8.511 2.09,9.113 2.481,9.463 2.872,9.813 3.472,9.779 3.822,9.39 7.083,5.749 7.083,0.221 3.822,-3.42"
             style="fill:#ffffff;fill-opacity:1;fill-rule:evenodd;stroke:none"
             id="path24" /></g><g
           id="g26"
           transform="translate(56.1482,68.5748)"><path
             d="m 0,0 v 20.878 h 3.415 c 1.382,0 2.521,-1.03 2.521,-2.299 V 2.296 C 5.936,1.028 4.797,0 3.415,0 Z"
             style="fill:#ffffff;fill-opacity:1;fill-rule:evenodd;stroke:none"
             id="path28" /></g><g
           id="g30"
           transform="translate(35.5761,86.438)"><path
             d="M 0,0 19.081,3.014 V -17.863 H -0.84 c -5.448,0.304 -9.758,1.015 -10.598,5.815 v 3.196 C -10.571,-3.841 -5.773,0 0,0"
             style="fill:#ffffff;fill-opacity:1;fill-rule:evenodd;stroke:none"
             id="path32" /></g><g
           id="g34"
           transform="translate(41.4054,61.8985)"><path
             d="m 0,0 c 0,2.115 -1.621,3.833 -3.617,3.833 h -7.232 c -1.996,0 -3.616,-1.718 -3.616,-3.833 l -2.893,-21.521 c 0,-2.117 1.62,-3.833 3.615,-3.833 h 7.233 c 1.996,0 3.617,1.716 3.617,3.833 z"
             style="fill:#ffffff;fill-opacity:1;fill-rule:evenodd;stroke:none"
             id="path36" /></g><g
           id="g38"
           transform="translate(135.9421,36.8316)"><path
             d="m 0,0 c -5.274,0 -9.961,1.129 -14.06,3.385 -4.099,2.255 -7.308,5.37 -9.629,9.341 -2.319,3.973 -3.479,8.533 -3.479,13.681 0,5.21 1.097,9.802 3.288,13.775 2.194,3.971 5.228,7.085 9.105,9.341 3.877,2.256 8.325,3.384 13.345,3.384 4.957,0 9.215,-1.096 12.775,-3.289 3.559,-2.192 6.275,-5.211 8.15,-9.055 1.875,-3.845 2.813,-8.278 2.813,-13.298 0,-1.208 -0.414,-2.209 -1.239,-3.003 -0.827,-0.795 -1.876,-1.192 -3.146,-1.192 h -38.417 v 7.626 h 38.13 l -3.908,-2.669 c -0.063,3.178 -0.699,6.021 -1.907,8.531 -1.208,2.511 -2.923,4.498 -5.148,5.959 -2.223,1.461 -4.925,2.192 -8.103,2.192 -3.622,0 -6.72,-0.794 -9.293,-2.383 -2.575,-1.588 -4.529,-3.766 -5.863,-6.53 -1.335,-2.765 -2.003,-5.895 -2.003,-9.389 0,-3.496 0.795,-6.611 2.384,-9.343 1.589,-2.733 3.781,-4.894 6.578,-6.482 C -6.831,8.993 -3.622,8.199 0,8.199 c 1.971,0 3.988,0.365 6.054,1.096 2.065,0.731 3.734,1.573 5.005,2.526 0.952,0.699 1.985,1.064 3.097,1.096 1.113,0.033 2.082,-0.301 2.908,-1 1.081,-0.953 1.652,-2.002 1.717,-3.146 C 18.844,7.627 18.335,6.642 17.255,5.815 15.094,4.1 12.408,2.702 9.199,1.622 5.99,0.541 2.924,0 0,0"
             style="fill:#ffffff;fill-opacity:1;fill-rule:nonzero;stroke:none"
             id="path40" /></g><g
           id="g42"
           transform="translate(192.3759,45.4117)"><path
             d="m 0,0 c 3.305,0 6.229,0.762 8.771,2.288 2.541,1.526 4.527,3.622 5.958,6.291 1.43,2.67 2.145,5.752 2.145,9.248 0,3.494 -0.715,6.593 -2.145,9.293 -1.431,2.702 -3.417,4.814 -5.958,6.34 -2.542,1.525 -5.466,2.288 -8.771,2.288 -3.304,0 -6.228,-0.763 -8.769,-2.288 -2.543,-1.526 -4.545,-3.638 -6.006,-6.34 -1.461,-2.7 -2.193,-5.799 -2.193,-9.293 0,-3.496 0.732,-6.578 2.193,-9.248 1.461,-2.669 3.463,-4.765 6.006,-6.291 C -6.228,0.762 -3.304,0 0,0 m -0.191,-29.838 c -4.511,0 -8.737,0.89 -12.677,2.669 -3.941,1.781 -7.278,4.385 -10.01,7.818 -0.827,1.08 -1.128,2.192 -0.906,3.337 0.223,1.143 0.843,2.064 1.859,2.763 1.144,0.763 2.336,1.018 3.575,0.763 1.24,-0.254 2.24,-0.89 3.003,-1.906 1.715,-2.162 3.877,-3.845 6.482,-5.053 2.606,-1.208 5.561,-1.811 8.865,-1.811 3.051,0 5.862,0.731 8.437,2.192 2.573,1.462 4.623,3.623 6.149,6.483 1.524,2.86 2.288,6.355 2.288,10.486 V 11.44 l 3.146,8.388 6.195,-2.001 V -2.765 c 0,-5.02 -1.112,-9.58 -3.336,-13.679 -2.224,-4.099 -5.322,-7.355 -9.295,-9.771 -3.971,-2.415 -8.563,-3.623 -13.775,-3.623 M -1.906,-8.58 c -4.766,0 -8.977,1.129 -12.631,3.385 -3.655,2.255 -6.53,5.37 -8.628,9.341 -2.096,3.973 -3.144,8.533 -3.144,13.681 0,5.21 1.127,9.802 3.384,13.775 2.256,3.971 5.353,7.085 9.293,9.341 3.941,2.256 8.484,3.384 13.632,3.384 5.084,0 9.597,-1.128 13.537,-3.384 3.94,-2.256 7.039,-5.37 9.294,-9.341 2.256,-3.973 3.384,-8.565 3.384,-13.775 h -5.623 c 0,-5.148 -0.97,-9.708 -2.909,-13.681 C 15.745,0.175 13.092,-2.94 9.723,-5.195 6.355,-7.451 2.478,-8.58 -1.906,-8.58"
             style="fill:#ffffff;fill-opacity:1;fill-rule:nonzero;stroke:none"
             id="path44" /></g><g
           id="g46"
           transform="translate(238.8958,97.8416)"><path
             d="m 0,0 c -1.715,0 -3.193,0.62 -4.433,1.859 -1.239,1.239 -1.858,2.717 -1.858,4.433 0,1.716 0.619,3.193 1.858,4.432 1.24,1.24 2.718,1.859 4.433,1.859 1.716,0 3.193,-0.619 4.433,-1.859 C 5.672,9.485 6.292,8.008 6.292,6.292 6.292,4.576 5.672,3.098 4.433,1.859 3.193,0.62 1.716,0 0,0 m 0,-60.628 c -1.398,0 -2.557,0.46 -3.479,1.383 -0.922,0.921 -1.382,2.08 -1.382,3.478 v 42.421 c 0,1.462 0.46,2.638 1.382,3.527 0.922,0.89 2.081,1.335 3.479,1.335 1.461,0 2.637,-0.445 3.527,-1.335 0.89,-0.889 1.335,-2.065 1.335,-3.527 v -42.421 c 0,-1.398 -0.445,-2.557 -1.335,-3.478 C 2.637,-60.168 1.461,-60.628 0,-60.628"
             style="fill:#ffffff;fill-opacity:1;fill-rule:nonzero;stroke:none"
             id="path48" /></g><g
           id="g50"
           transform="translate(280.8397,36.8316)"><path
             d="m 0,0 c -4.448,0 -8.563,0.683 -12.344,2.05 -3.782,1.367 -6.721,3.099 -8.818,5.196 -0.954,1.016 -1.351,2.176 -1.192,3.479 0.159,1.302 0.778,2.368 1.858,3.193 1.272,1.017 2.528,1.446 3.767,1.288 1.239,-0.159 2.303,-0.716 3.193,-1.669 1.08,-1.208 2.812,-2.335 5.195,-3.384 2.384,-1.049 5.037,-1.573 7.96,-1.573 3.686,0 6.498,0.603 8.437,1.811 1.938,1.208 2.938,2.765 3.003,4.672 0.063,1.905 -0.843,3.559 -2.718,4.957 -1.874,1.398 -5.29,2.541 -10.248,3.431 -6.418,1.271 -11.073,3.178 -13.964,5.719 -2.893,2.543 -4.338,5.656 -4.338,9.343 0,3.241 0.953,5.926 2.86,8.055 1.906,2.129 4.353,3.718 7.34,4.766 2.987,1.049 6.101,1.573 9.343,1.573 4.193,0 7.911,-0.667 11.152,-2.002 3.242,-1.334 5.815,-3.177 7.722,-5.529 0.889,-1.016 1.303,-2.081 1.239,-3.193 -0.063,-1.112 -0.603,-2.05 -1.62,-2.812 -1.018,-0.699 -2.225,-0.921 -3.624,-0.668 -1.397,0.255 -2.573,0.827 -3.525,1.716 -1.589,1.526 -3.306,2.574 -5.149,3.146 -1.843,0.572 -3.972,0.858 -6.387,0.858 -2.795,0 -5.164,-0.476 -7.102,-1.43 -1.938,-0.953 -2.907,-2.351 -2.907,-4.194 0,-1.145 0.302,-2.176 0.906,-3.099 0.603,-0.921 1.795,-1.747 3.574,-2.478 1.78,-0.731 4.386,-1.446 7.817,-2.145 4.766,-0.953 8.533,-2.16 11.296,-3.622 2.765,-1.462 4.751,-3.162 5.959,-5.1 1.207,-1.938 1.811,-4.179 1.811,-6.72 0,-2.924 -0.778,-5.561 -2.336,-7.913 C 16.603,5.371 14.315,3.496 11.296,2.097 8.278,0.699 4.513,0 0,0"
             style="fill:#ffffff;fill-opacity:1;fill-rule:nonzero;stroke:none"
             id="path52" /></g><g
           id="g54"
           transform="translate(311.4398,79.2529)"><path
             d="m 0,0 c -1.334,0 -2.414,0.381 -3.241,1.144 -0.826,0.762 -1.239,1.716 -1.239,2.86 0,1.271 0.413,2.288 1.239,3.05 0.827,0.763 1.907,1.144 3.241,1.144 h 22.021 c 1.334,0 2.414,-0.381 3.241,-1.144 0.827,-0.762 1.239,-1.779 1.239,-3.05 0,-1.144 -0.412,-2.098 -1.239,-2.86 C 24.435,0.381 23.355,0 22.021,0 Z m 21.163,-42.039 c -3.177,0 -6.037,0.81 -8.58,2.43 -2.542,1.622 -4.543,3.829 -6.006,6.626 -1.461,2.796 -2.192,5.941 -2.192,9.437 v 45.471 c 0,1.398 0.446,2.542 1.334,3.432 0.891,0.89 2.035,1.335 3.433,1.335 1.398,0 2.541,-0.445 3.431,-1.335 0.89,-0.89 1.335,-2.034 1.335,-3.432 v -45.471 c 0,-2.542 0.699,-4.671 2.098,-6.387 1.398,-1.716 3.113,-2.573 5.147,-2.573 h 3.241 c 1.144,0 2.113,-0.446 2.908,-1.335 0.794,-0.89 1.191,-2.035 1.191,-3.431 0,-1.399 -0.525,-2.543 -1.573,-3.433 -1.049,-0.89 -2.399,-1.334 -4.051,-1.334 z"
             style="fill:#ffffff;fill-opacity:1;fill-rule:nonzero;stroke:none"
             id="path56" /></g><g
           id="g58"
           transform="translate(356.6257,37.214)"><path
             d="m 0,0 c -1.526,0 -2.702,0.397 -3.527,1.191 -0.827,0.795 -1.239,1.987 -1.239,3.575 v 42.611 c 0,1.525 0.412,2.701 1.239,3.527 0.825,0.826 2.001,1.24 3.527,1.24 1.589,0 2.779,-0.398 3.574,-1.192 0.794,-0.794 1.191,-1.986 1.191,-3.575 V 4.766 C 4.765,3.241 4.368,2.065 3.574,1.239 2.779,0.413 1.589,0 0,0 m -0.096,32.602 c 0,3.812 0.937,7.229 2.812,10.247 1.874,3.019 4.401,5.418 7.579,7.197 3.178,1.78 6.672,2.67 10.486,2.67 3.812,0 6.657,-0.62 8.531,-1.859 1.876,-1.24 2.59,-2.717 2.145,-4.433 -0.191,-0.89 -0.556,-1.573 -1.096,-2.05 -0.54,-0.476 -1.159,-0.778 -1.858,-0.905 -0.699,-0.127 -1.463,-0.096 -2.288,0.095 -4.068,0.826 -7.722,0.89 -10.963,0.191 C 12.01,43.056 9.453,41.753 7.577,39.847 5.703,37.94 4.765,35.524 4.765,32.602 Z"
             style="fill:#ffffff;fill-opacity:1;fill-rule:nonzero;stroke:none"
             id="path60" /></g><g
           id="g62"
           transform="translate(439.3688,37.1181)"><path
             d="m 0,0 c -1.398,0 -2.557,0.461 -3.479,1.382 -0.922,0.922 -1.382,2.082 -1.382,3.48 V 19.447 L -3.05,29.551 4.862,26.12 V 4.862 C 4.862,3.464 4.401,2.304 3.48,1.382 2.559,0.461 1.398,0 0,0 m -21.354,8.294 c 3.242,0 6.133,0.778 8.676,2.335 2.542,1.557 4.543,3.686 6.005,6.387 1.462,2.702 2.193,5.736 2.193,9.104 0,3.431 -0.731,6.499 -2.193,9.199 -1.462,2.701 -3.463,4.83 -6.005,6.387 -2.543,1.557 -5.434,2.335 -8.676,2.335 -3.176,0 -6.053,-0.778 -8.626,-2.335 -2.574,-1.557 -4.607,-3.686 -6.101,-6.387 -1.493,-2.7 -2.24,-5.768 -2.24,-9.199 0,-3.368 0.747,-6.402 2.24,-9.104 1.494,-2.701 3.527,-4.83 6.101,-6.387 2.573,-1.557 5.45,-2.335 8.626,-2.335 m -1.905,-8.58 c -4.639,0 -8.802,1.16 -12.489,3.479 -3.686,2.32 -6.593,5.466 -8.722,9.437 -2.129,3.973 -3.193,8.469 -3.193,13.49 0,5.02 1.159,9.533 3.479,13.536 2.32,4.004 5.465,7.166 9.438,9.485 3.971,2.32 8.435,3.48 13.392,3.48 4.959,0 9.407,-1.16 13.347,-3.48 3.94,-2.319 7.07,-5.481 9.39,-9.485 C 3.702,35.653 4.862,31.14 4.862,26.12 H 1.145 C 1.145,21.099 0.08,16.603 -2.049,12.63 -4.178,8.659 -7.086,5.513 -10.772,3.193 -14.458,0.874 -18.62,-0.286 -23.259,-0.286"
             style="fill:#ffffff;fill-opacity:1;fill-rule:nonzero;stroke:none"
             id="path64" /></g><g
           id="g66"
           transform="translate(477.6909,36.8316)"><path
             d="m 0,0 c -4.448,0 -8.564,0.683 -12.345,2.05 -3.781,1.367 -6.721,3.099 -8.818,5.196 -0.953,1.016 -1.35,2.176 -1.192,3.479 0.159,1.302 0.779,2.368 1.859,3.193 1.271,1.017 2.526,1.446 3.766,1.288 1.239,-0.159 2.303,-0.716 3.193,-1.669 1.08,-1.208 2.812,-2.335 5.196,-3.384 2.383,-1.049 5.036,-1.573 7.96,-1.573 3.685,0 6.497,0.603 8.435,1.811 1.939,1.208 2.94,2.765 3.003,4.672 0.065,1.905 -0.842,3.559 -2.716,4.957 -1.875,1.398 -5.291,2.541 -10.248,3.431 -6.418,1.271 -11.074,3.178 -13.965,5.719 -2.891,2.543 -4.337,5.656 -4.337,9.343 0,3.241 0.953,5.926 2.86,8.055 1.905,2.129 4.352,3.718 7.339,4.766 2.987,1.049 6.102,1.573 9.342,1.573 4.195,0 7.913,-0.667 11.154,-2.002 3.24,-1.334 5.815,-3.177 7.722,-5.529 0.889,-1.016 1.302,-2.081 1.239,-3.193 -0.064,-1.112 -0.605,-2.05 -1.622,-2.812 -1.016,-0.699 -2.223,-0.921 -3.622,-0.668 -1.398,0.255 -2.574,0.827 -3.527,1.716 -1.589,1.526 -3.305,2.574 -5.147,3.146 -1.843,0.572 -3.972,0.858 -6.387,0.858 -2.797,0 -5.163,-0.476 -7.102,-1.43 -1.938,-0.953 -2.908,-2.351 -2.908,-4.194 0,-1.145 0.302,-2.176 0.905,-3.099 0.605,-0.921 1.796,-1.747 3.576,-2.478 1.78,-0.731 4.384,-1.446 7.817,-2.145 4.766,-0.953 8.531,-2.16 11.296,-3.622 2.764,-1.462 4.75,-3.162 5.957,-5.1 1.208,-1.938 1.813,-4.179 1.813,-6.72 0,-2.924 -0.78,-5.561 -2.337,-7.913 C 16.603,5.371 14.315,3.496 11.296,2.097 8.277,0.699 4.512,0 0,0"
             style="fill:#ffffff;fill-opacity:1;fill-rule:nonzero;stroke:none"
             id="path68" /></g><g
           id="g70"
           transform="translate(529.4529,36.8316)"><path
             d="m 0,0 c -4.448,0 -8.563,0.683 -12.345,2.05 -3.781,1.367 -6.72,3.099 -8.817,5.196 -0.954,1.016 -1.351,2.176 -1.192,3.479 0.159,1.302 0.778,2.368 1.858,3.193 1.272,1.017 2.528,1.446 3.767,1.288 1.239,-0.159 2.304,-0.716 3.193,-1.669 1.08,-1.208 2.812,-2.335 5.195,-3.384 2.384,-1.049 5.036,-1.573 7.96,-1.573 3.686,0 6.498,0.603 8.437,1.811 1.938,1.208 2.938,2.765 3.003,4.672 0.063,1.905 -0.843,3.559 -2.718,4.957 -1.874,1.398 -5.29,2.541 -10.248,3.431 -6.418,1.271 -11.073,3.178 -13.965,5.719 -2.892,2.543 -4.337,5.656 -4.337,9.343 0,3.241 0.953,5.926 2.86,8.055 1.906,2.129 4.353,3.718 7.34,4.766 2.986,1.049 6.101,1.573 9.341,1.573 4.195,0 7.913,-0.667 11.155,-2.002 3.241,-1.334 5.814,-3.177 7.721,-5.529 0.889,-1.016 1.303,-2.081 1.239,-3.193 -0.063,-1.112 -0.603,-2.05 -1.621,-2.812 -1.017,-0.699 -2.224,-0.921 -3.621,-0.668 -1.399,0.255 -2.575,0.827 -3.528,1.716 -1.588,1.526 -3.305,2.574 -5.147,3.146 -1.844,0.572 -3.973,0.858 -6.388,0.858 -2.795,0 -5.163,-0.476 -7.102,-1.43 -1.938,-0.953 -2.907,-2.351 -2.907,-4.194 0,-1.145 0.301,-2.176 0.906,-3.099 0.603,-0.921 1.795,-1.747 3.574,-2.478 1.78,-0.731 4.386,-1.446 7.817,-2.145 4.766,-0.953 8.533,-2.16 11.296,-3.622 2.765,-1.462 4.751,-3.162 5.959,-5.1 1.207,-1.938 1.811,-4.179 1.811,-6.72 0,-2.924 -0.778,-5.561 -2.336,-7.913 C 16.603,5.371 14.315,3.496 11.296,2.097 8.278,0.699 4.513,0 0,0"
             style="fill:#ffffff;fill-opacity:1;fill-rule:nonzero;stroke:none"
             id="path72" /></g><g
           id="g74"
           transform="translate(585.8867,45.4117)"><path
             d="m 0,0 c 3.305,0 6.228,0.762 8.771,2.288 2.541,1.526 4.527,3.622 5.957,6.291 1.43,2.67 2.146,5.752 2.146,9.248 0,3.494 -0.716,6.593 -2.146,9.293 -1.43,2.702 -3.416,4.814 -5.957,6.34 -2.543,1.525 -5.466,2.288 -8.771,2.288 -3.304,0 -6.228,-0.763 -8.769,-2.288 -2.543,-1.526 -4.545,-3.638 -6.006,-6.34 -1.463,-2.7 -2.193,-5.799 -2.193,-9.293 0,-3.496 0.73,-6.578 2.193,-9.248 1.461,-2.669 3.463,-4.765 6.006,-6.291 C -6.228,0.762 -3.304,0 0,0 m 0,-8.58 c -5.148,0 -9.692,1.129 -13.632,3.385 -3.94,2.255 -7.038,5.37 -9.293,9.341 -2.257,3.973 -3.386,8.533 -3.386,13.681 0,5.21 1.129,9.802 3.386,13.775 2.255,3.971 5.353,7.085 9.293,9.341 3.94,2.256 8.484,3.384 13.632,3.384 5.084,0 9.596,-1.128 13.537,-3.384 3.94,-2.256 7.037,-5.37 9.294,-9.341 2.256,-3.973 3.384,-8.565 3.384,-13.775 0,-5.148 -1.112,-9.708 -3.337,-13.681 C 20.655,0.175 17.572,-2.94 13.632,-5.195 9.692,-7.451 5.148,-8.58 0,-8.58"
             style="fill:#ffffff;fill-opacity:1;fill-rule:nonzero;stroke:none"
             id="path76" /></g></g></g></g></svg>
