<?xml version="1.0" encoding="utf-8"?>
<!-- Generator: Adobe Illustrator 27.6.1, SVG Export Plug-In . SVG Version: 6.00 Build 0)  -->
<svg version="1.1" id="Layer_1" xmlns="http://www.w3.org/2000/svg" xmlns:xlink="http://www.w3.org/1999/xlink" x="0px" y="0px"
	 viewBox="0 0 800 800" style="enable-background:new 0 0 800 800;" xml:space="preserve">
<style type="text/css">
	.st0{fill:#F1F2F2;}
</style>
<g>
	<path class="st0" d="M652.9,100c-9.2-15.9-29.6-21.4-45.5-12.2c-15.9,9.2-21.4,29.6-12.2,45.5c46.7,81,71.5,173.2,71.5,266.7
		c0,93.5-24.7,185.7-71.5,266.7c-9.2,15.9-3.7,36.3,12.2,45.5c5.2,3,11,4.5,16.6,4.5c11.5,0,22.7-6,28.9-16.7
		c52.6-91.1,80.4-194.8,80.4-300C733.3,294.8,705.5,191.1,652.9,100z"/>
	<path class="st0" d="M463.1,171.1c-15.9,9.2-21.4,29.6-12.2,45.5C483,272.3,500,335.7,500,400c0,64.3-17,127.7-49.1,183.3
		c-9.2,15.9-3.7,36.3,12.2,45.5c5.2,3,11,4.5,16.6,4.5c11.5,0,22.7-6,28.9-16.7c38-65.8,58.1-140.7,58.1-216.7
		c0-76-20.1-150.9-58.1-216.7C499.4,167.4,479,161.9,463.1,171.1z"/>
	<path class="st0" d="M359.8,250c-9.2-15.9-29.6-21.4-45.5-12.2c-15.9,9.2-21.4,29.6-12.2,45.5c20.5,35.4,31.3,75.8,31.3,116.7
		c0,19.8-2.5,39.5-7.5,58.5L201.7,259.8c-1.9-8.9-7.4-17.1-15.9-22c-5.6-3.2-11.8-4.7-17.8-4.4c-6.4-0.2-13,1.4-18.9,5
		c-8.7,5.4-14,14.1-15.3,23.5c-22.1,42.6-33.7,90-33.7,138.1c0,52.6,13.9,104.5,40.2,150c6.2,10.7,17.4,16.7,28.9,16.7
		c5.7,0,11.4-1.4,16.6-4.5c15.9-9.2,21.4-29.6,12.2-45.5c-20.5-35.4-31.3-75.8-31.3-116.7c0-19.8,2.5-39.5,7.5-58.5l124.2,198.7
		c1.9,8.9,7.4,17.1,15.9,22c5.2,3,11,4.5,16.6,4.5c0.4,0,0.8,0,1.2,0c0.4,0,0.8,0,1.2,0c6,0,12.1-1.6,17.6-5.1
		c8.7-5.4,14-14.1,15.3-23.5c22.1-42.6,33.7-90,33.7-138.1C400,347.4,386.1,295.5,359.8,250z"/>
</g>
</svg>
