<?xml version="1.0" encoding="utf-8"?>
<svg version="1.1" id="Layer_1" x="0px" y="0px" viewBox="0 0 512 512" style="enable-background:new 0 0 512 512;" xmlns="http://www.w3.org/2000/svg">
  <style type="text/css">
	.st0{opacity:0.4;enable-background:new    ;}
</style>
  <g>
    <path class="st0" d="M512,160v192c0,53-43,96-96,96h-84c-6.6,0-12-5.4-12-12v-40c0-6.6,5.4-12,12-12h84c17.7,0,32-14.3,32-32V160 c0-17.7-14.3-32-32-32h-84c-6.6,0-12-5.4-12-12l0,0V76c0-6.6,5.4-12,12-12h84C469,64,512,107,512,160z" style="fill: rgb(242, 243, 244);"/>
    <path d="M215.6,295.9H24c-13.2,0-24-10.7-24-23.9c0,0,0-0.1,0-0.1v-32c0-13.2,10.7-24,23.9-24c0,0,0.1,0,0.1,0h191.5l-77.6-71.1 c-9.7-8.9-10.4-24-1.5-33.7c0.3-0.3,0.5-0.6,0.8-0.8l21.9-21.9c9.4-9.3,24.5-9.4,33.9-0.1L344.9,239c9.4,9.3,9.5,24.5,0.2,33.9 c-0.1,0.1-0.1,0.1-0.2,0.2L193,423.7c-9.4,9.3-24.6,9.3-33.9-0.1l-21.9-21.9c-9.4-9.4-9.4-24.6,0-33.9c0.3-0.3,0.5-0.5,0.8-0.8 L215.6,295.9z" style="fill: rgb(242, 243, 244);"/>
  </g>
</svg>
